Patient4_TMGait_0pt4_02_left_24_EMG.mot
version=1
nRows=23
nColumns=33
inDegrees=no
endheader
time	1LAddLong	2LGlutMax	3LGlutMed	4LIliopsoas	5LSemiMemb	6LBicFemLong	7LRecFem	8LVastMed	9LVastLat	10LGasMed	11LTibAnt	12lTibPost	13LPeroneusLong	14LSol	15LExtDigLong	16LFlexDigLong	17RAddLong	18RGlutMax	19RGlutMed	20RIliopsoas	21RSemiMemb	22RBicFemLong	23RRecFem	24RVastMed	25RVastLat	26RGasMed	27RTibAnt	28RTibPost	29RPeroneusLong	30RSol	31RExtDigLong	32RFlexDigLong
32.642	-0.016785	0.21149	0.001373	0.00946	-0.017548	-0.11078	-0.62424	0.012054	-0.17303	-0.054321	0.004425	-0.002289	0.15121	-0.032806	-0.028992	-0.003204	0.047455	0.049744	0.075989	0.10941	-0.06546	-0.007782	0.30502	-0.12222	-0.001984	0.000458	0.029755	-0.006561	0.13794	0.050964	-0.000763	0.007477
32.643	-0.009766	0.2269	0.036011	0.022125	-0.027008	-0.21164	-0.54138	0.021362	-0.096893	-0.044098	-0.015869	-0.02655	-0.046234	-0.16892	0.014191	-0.007477	0.054321	0.071106	0.062103	0.002441	-0.070496	-0.032959	0.30228	-0.091858	-0.020294	0.008087	0.014191	-0.005951	0.067596	-0.11917	0.00412	-0.000763
32.644	-0.012512	0.25696	0.087891	-0.004883	-0.008545	-0.081482	-0.43869	0.007935	0.001221	-0.033722	-0.006714	-0.009308	-0.090179	-0.15732	0.067596	-0.000763	0.01297	0.07431	0.023346	-0.033417	-0.068054	-0.017853	0.2977	-0.071259	0.010223	-0.005493	0.023651	-0.021515	0.065155	-0.37064	-0.000916	-0.000305
32.645	-0.006714	0.30624	0.10864	0.037231	0.014496	0.11643	-0.43549	0.001984	0.13275	0.032043	0.032349	-0.025787	-0.21927	0.014496	0.3186	-0.01236	-0.039368	0.12833	0.096893	-0.11414	-0.048981	-0.024109	0.23086	-0.032349	0.006561	-0.010376	0.016174	-0.016632	0.030212	-0.37872	-0.002594	0.012817
32.646	-0.028229	0.3122	0.25711	-0.003052	-0.011292	0.18463	-0.30533	-0.006714	0.15823	0.17944	-0.06485	-0.031281	-0.29297	0.036774	0.3009	-0.001068	-0.07431	0.1886	0.30533	-0.10452	-0.05188	-0.015106	0.23132	-0.052338	0.00412	-0.016327	0.003357	-0.000916	-0.009613	0.061493	-0.003967	0.009155
32.647	-0.027924	0.34409	0.25681	0.000153	-0.067291	0.26321	-0.1503	-0.023956	0.21759	0.34775	-0.030823	-0.024872	-0.28625	-0.014801	0.10437	0.009308	-0.086517	0.20645	0.18662	-0.040283	-0.051575	-0.029602	0.24551	-0.038452	-0.002747	0.003967	0.007324	0.011139	0.043488	0.07782	0.002136	0.00885
32.648	0.02182	0.34729	0.19684	-0.008087	-0.070038	0.20966	-0.087433	-0.019989	0.41504	0.17441	-0.025177	-0.001678	-0.22858	-0.14328	0.014954	0.023193	-0.091705	0.17105	0.1384	-0.1178	-0.058441	-0.031128	0.24338	-0.0383	-0.003662	0.00946	0.020599	0.015564	0.068054	0.068817	-0.00351	0.007935
32.649	0.041351	0.31632	0.15076	-0.008545	-0.04303	0.057526	-0.20783	-0.014648	0.63355	0.007782	-0.023499	-0.013275	0.42389	-0.052795	0.083313	0.029449	-0.08728	0.1857	0.22903	-0.13077	-0.058594	-0.035095	0.22842	-0.022736	-0.006409	0.011597	0.033875	0.006561	0.049286	0.21515	-0.000153	0.010223
32.65	0.02533	0.27664	0.047302	-0.010376	-0.076294	-0.11246	-0.2681	-0.009003	0.58868	-0.15533	-0.006561	-0.006714	0.13947	0.071564	0.15259	0.022583	-0.090179	0.19501	0.35233	-0.084991	-0.049438	-0.019531	0.24765	-0.039978	-0.010681	0.006561	0.050354	-0.000916	-0.016785	0.16022	-0.003662	0.015869
32.651	0.020447	0.19348	0.002441	0.003662	-0.050812	-0.58975	-0.28244	-0.012207	0.53619	-0.3122	0.00351	0.002747	0.84946	0.063629	0.057831	0.016937	-0.098419	0.18814	0.36667	-0.023804	-0.032043	-0.026093	0.23224	-0.03479	0.003967	-0.004883	0.023804	-0.001068	-0.074158	-0.095062	0.000458	0.019379
32.652	0.024719	0.10483	-0.12894	-0.009155	0.016174	-0.55939	-0.31433	-0.010071	0.36499	-0.16769	0.011444	-0.00351	-0.028992	-0.15915	-0.096283	0.004578	-0.080566	0.13031	0.22995	0.034027	-0.026093	-0.060883	0.20798	0.01358	-0.006714	-0.006714	0.039368	-0.003815	-0.17914	-0.36041	-0.003662	0.008698
32.653	0.007324	0.052338	-0.17441	0.009766	0.019836	-0.18295	-0.32105	-0.02243	0.068665	-0.17242	0.030823	-0.011597	-0.00946	-0.43671	-0.23148	0.005188	-0.037079	0.14481	0.029907	0.055847	-0.013275	-0.037537	0.18936	-0.030518	-0.014648	-0.015564	0.028687	-0.002289	-0.14038	-0.38773	0.001526	0.006409
32.654	0.013275	0.061798	-0.037231	-0.00061	-0.031433	-0.04715	-0.34378	-0.022125	-0.26093	-0.078278	0.028534	-0.010529	0.10361	-0.26718	-0.24277	0.003204	0.007172	0.17975	0.11719	-0.008545	-0.00412	-0.039825	0.22018	-0.047913	-0.015717	-0.005798	0.019073	-0.009155	-0.094452	-0.327	-0.003052	0.002289
32.655	0.015106	0.002441	0.011597	0.026245	-0.020142	-0.073395	-0.23712	-0.025482	-0.47516	0.085144	0.037384	-0.014648	-0.11765	0.12009	-0.18494	-0.002747	0.035858	0.16495	0.20462	0.001221	-0.014343	-0.038757	0.18921	-0.032501	-0.02182	-0.012817	0.026855	-0.002594	-0.09491	-0.19806	-0.003967	-0.006714
32.656	0.011292	0.007782	-0.079651	0.015869	-0.00946	-0.007172	-0.20554	-0.014801	-0.4953	0.033722	-0.026703	-0.016327	0.043945	-0.17532	-0.16388	0.001831	0.033417	0.18906	0.11856	0.036926	-0.01709	-0.050354	0.17014	-0.032806	-0.021057	-0.003815	0.032349	-0.007172	-0.12436	-0.23529	0.000458	-0.004578
32.657	-0.001068	0.015259	-0.1445	0.006714	0.041504	0.03952	-0.18036	-0.002899	-0.23575	0.046844	-0.047455	0.003204	-0.10422	-0.38055	0.007019	-0.020142	0.041656	0.19379	0.072632	0.058594	-0.018311	-0.075226	0.13382	-0.018768	-0.019073	-0.002289	0.015869	-0.012054	-0.12604	-0.20554	-0.003052	0.000305
32.658	-0.007782	0.011749	-0.19928	-0.007324	0.052185	0.11749	-0.10513	-0.005493	0.002899	0.040436	-0.034332	0.12054	0.016174	-0.50262	0.068207	-0.021973	0.03479	0.15762	0.098572	0.007935	-0.018311	-0.067444	0.10895	-0.000763	-0.005188	-0.00351	0.020905	-0.004578	0.02243	-0.19882	0	-0.00946
32.659	-0.027313	-0.039978	-0.15503	0.007324	-0.064697	0.23254	-0.014038	-0.000458	-0.053253	0.02533	-0.008087	0.072632	0.22888	-0.55527	0.058289	-0.005798	0.012054	0.24002	0.26276	-0.046082	-0.026245	-0.083466	0.047455	-0.025482	-0.007019	0.000305	0.036163	-0.013428	0.09552	-0.16647	0.000305	-0.002441
32.66	-0.011902	-0.046539	-0.17975	0.00885	-0.13336	0.1506	0.003204	-0.009766	-0.081635	-0.051575	0.022125	-0.103	0.10223	-0.49469	0.13443	0.003052	0.023804	0.24155	-0.035858	-0.001221	-0.025635	-0.064087	0.080261	-0.013275	-0.003357	-0.00061	0.036926	-0.00885	0.046844	-0.13794	-0.00061	-0.014496
32.661	0.006866	-0.09613	-0.12909	0.028076	-0.1387	-0.011139	-0.019226	-0.010681	-0.064392	-0.055084	0.025482	0.015106	-0.052795	-0.33371	0.14008	0.00061	0.029449	0.25055	-0.067139	0.10681	-0.021667	-0.056763	0.14587	-0.073395	-0.021667	-0.000916	0.033875	-0.006409	-0.18295	-0.18433	0.00061	-0.005341
32.662	0.013885	-0.016632	-0.054626	0.011597	-0.009613	-0.068359	-0.00946	-0.005646	0.041199	-0.016785	-0.017242	0.009155	0.020447	-0.25757	0.1268	-0.001373	0.017853	0.3067	-0.072479	0.1532	-0.024719	-0.055847	0.11032	-0.045319	-0.015717	0.00061	0.002289	-0.011749	0.067749	-0.21698	-0.002747	-0.003052
32.663	0.033264	0.022583	-0.006409	-0.029602	0.061035	0.066223	-0.046692	-0.002289	0.093994	-0.009766	0.103	0.010681	0.03952	-0.12482	0.027466	0.008392	0.011292	0.35126	-0.057983	0.10666	-0.024109	-0.062561	0.13473	-0.023956	-0.0177	0.000458	-0.038757	-0.011139	0.37643	-0.33035	-0.00061	-0.00412
32.664	0.045013	0.055695	-0.10452	-0.000916	0.061188	0.17593	-0.095062	0.004578	0.025024	-0.019379	0.056152	0.009003	0.13001	0.15717	-0.023499	-0.002136	-0.014648	0.40451	-0.035248	0.096436	-0.033264	-0.053101	0.14664	0.010376	-0.001984	-0.004883	-0.016174	-0.005646	0.29114	-0.41199	-0.000458	-0.00824
